<?xml version="1.0" encoding="UTF-8"?>
<svg xmlns="http://www.w3.org/2000/svg" viewBox="0 0 512 512" width="512" height="512">
<path d="M240.03 0.08C250.68 0.08 261.32 0.08 271.97 0.08C274.95 1.43 278.82 0.85 282.07 1.24C289.06 2.08 296.12 2.89 303.04 4.24C323.74 8.29 343.29 14.91 362.58 23.22C424.24 49.79 474.25 106.28 496.8 168.9C502.19 183.87 506.37 199.54 508.82 215.3C509.71 221.03 510.2 236.29 511.92 240.43C511.92 250.8 511.92 261.18 511.92 271.55C510.57 274.72 511.17 278.66 510.75 282.04C509.7 290.62 508.51 299.2 506.82 307.67C502.88 327.42 495.97 346.28 487.8 364.6C460.06 426.89 403.73 474.64 340.49 497.72C326.52 502.82 311.47 506.72 296.72 508.84C291.16 509.64 275.55 510.26 271.57 511.92C261.19 511.92 250.81 511.92 240.43 511.92C236.07 510.11 221.34 509.84 215.37 508.79C199.51 506 184.07 502.1 168.9 496.79C106.76 475.05 51.2 424.91 24.2 364.6C16.02 346.33 8.99 327.42 5.17 307.68C3.55 299.3 2.44 290.86 1.28 282.4C0.82 279.04 1.46 275.06 0.08 271.95C0.08 261.31 0.08 250.67 0.08 240.02C1.85 235.98 2.21 220.66 3.23 214.9C5.99 199.23 9.86 183.86 15.2 168.89C38.04 104.91 88 51.79 149.42 23.21C168.38 14.39 188.78 7.99 209.37 4.21C216.16 2.96 223.05 2.05 229.92 1.24C233.16 0.85 237.04 1.43 240.03 0.08ZM121.84 139.73C106.19 140.58 93.4 152.27 91.22 167.88C90.54 172.71 91.02 177.88 91.02 182.75C91.02 192.25 91.02 201.75 91.02 211.25C91.02 240.08 91.02 268.92 91.02 297.75C91.02 308.58 91.02 319.42 91.02 330.25C91.02 338.47 90.6 346.51 94.19 354.1C102.9 372.55 119.07 372.35 136.75 372.35C145.58 372.35 154.42 372.35 163.25 372.35C224.25 372.35 285.25 372.35 346.25 372.35C355.25 372.35 364.25 372.35 373.25 372.35C388.14 372.35 403.54 373.41 413.75 360.5C421.98 350.07 420.98 337.85 420.98 325.25C420.98 306.08 420.98 286.92 420.98 267.75C420.98 242.08 420.98 216.42 420.98 190.75C420.98 177.09 422.77 162.86 413.75 151.49C404.19 139.44 390.33 139.65 376.25 139.65C363.25 139.65 350.25 139.65 337.25 139.65C289.58 139.65 241.92 139.65 194.25 139.65C170.23 139.65 145.83 138.41 121.84 139.73ZM367.84 166.04C330.48 195.75 293.11 225.46 255.75 255.17C218.55 225.46 181.36 195.75 144.16 166.04C218.72 166.04 293.28 166.04 367.84 166.04ZM393.82 180.25C395.32 182.71 394.48 187.32 394.48 190.25C394.48 198.58 394.48 206.92 394.48 215.25C394.48 245.92 394.48 276.58 394.48 307.25C394.48 316.25 394.48 325.25 394.48 334.25C394.48 337.53 395.3 342.26 392.35 344.59C389.72 346.66 385.88 345.96 382.75 345.96C375.75 345.96 368.75 345.96 361.75 345.96C334.08 345.96 306.42 345.96 278.75 345.96C240.42 345.96 202.08 345.96 163.75 345.96C153.58 345.96 143.42 345.96 133.25 345.96C129.41 345.96 123.64 347.08 120.27 344.99C116.79 342.85 117.52 338.27 117.52 334.75C117.52 325.58 117.52 316.42 117.52 307.25C117.52 276.92 117.52 246.58 117.52 216.25C117.52 207.75 117.52 199.25 117.52 190.75C117.52 187.66 116.67 182.93 118.1 180.25C121.5 181.34 125.14 185.52 127.97 187.77C135.11 193.45 142.36 199.02 149.39 204.83C172.7 224.09 196.83 242.45 220.53 261.23C228.06 267.19 235.47 273.34 243.09 279.18C246.95 282.13 250.55 285.75 255.75 285.83C261.53 285.92 265.84 281.69 270.06 278.32C278.49 271.59 287.09 265.05 295.39 258.17C317.03 240.22 339.7 223.5 361.5 205.75C368.95 199.68 376.48 193.69 384.07 187.8C387.08 185.46 390.32 181.74 393.82 180.25Z" fill="#000000" fill-rule="evenodd" stroke="#000000" stroke-width="0.25" stroke-linejoin="round"/>
</svg>