<?xml version="1.0" encoding="UTF-8"?>
<svg xmlns="http://www.w3.org/2000/svg" viewBox="0 0 512 512" width="512" height="512">
<path d="M511.92 246.48C511.92 256.83 511.92 267.17 511.92 277.52C510.31 281.35 509.59 297.73 508.84 303.22C506.94 317.02 503.2 330.95 498.82 344.12C480.32 399.75 442.41 447.1 393.39 479.17C378.45 488.94 362.16 497.18 345.37 503.18C338.47 505.64 330.09 509.31 323.59 503.65C319.4 500 319.52 494.34 319.56 489.25C319.64 480.25 319.76 471.25 319.78 462.25C319.83 439.99 323.05 415.04 314.79 393.91C312.07 386.97 307.58 382.12 303.3 376.25C306.49 374.07 322.59 372.87 327.64 371.8C342.89 368.56 358.38 363.27 371.56 354.78C402.63 334.77 413.91 304.76 418.25 269.49C420.34 252.52 420.12 233.82 414.75 217.47C411.86 208.68 408 200.13 402.8 192.42C399.92 188.13 395.57 184.26 393.18 179.75C394.35 175.38 395.96 171.14 396.8 166.64C399.97 149.44 398.24 128.06 390.45 112.25C385 110.27 378.67 111.71 373.18 112.83C359.48 115.64 346.4 122.13 334.43 129.21C331.13 131.16 323.53 137.47 320.24 138C317.9 138.37 301.66 134.01 298.02 133.25C284.47 130.42 270.06 129.78 256.25 129.68C242.28 129.59 227.65 130.45 213.95 133.24C209.88 134.07 195.12 138.22 192.25 138.01C189.83 137.84 179.05 129.93 176.06 128.22C164.42 121.57 152.03 115.64 138.86 112.81C133.45 111.65 126.86 110.13 121.52 112.25C113.97 128.18 111.87 149.33 115.23 166.59C116.1 171.1 117.79 175.34 118.87 179.75C116.41 184.26 112.12 188.13 109.22 192.45C104.05 200.17 100.12 208.68 97.25 217.47C93.16 230.03 92.67 243.12 92.88 256.25C93.48 293.48 106.16 332.81 138.92 353.81C152.53 362.53 168.01 368.52 183.83 371.82C190.23 373.15 203.38 374.04 208.54 376.25C207.43 378.14 205.56 379.65 204.17 381.4C201.26 385.05 198.85 389.54 197.18 393.88C196 396.99 193.87 408.88 192.6 410.35C190.5 412.77 176.36 415.71 172.85 416.21C154.23 418.87 137.42 412.96 125.17 398.61C120.48 393.11 117.37 386.55 112.77 380.97C104.78 371.29 93.82 364.39 81.34 362.79C78.14 362.38 69.77 361.97 68.13 365.86C66.68 369.3 70.57 372.45 72.83 374.42C80.53 381.12 87.19 384.46 93.69 393.05C101.32 403.14 103.87 414.31 110.23 424.54C120.75 441.44 138.38 450.67 157.87 452.77C166.15 453.67 174.53 452.82 182.75 451.88C185.58 451.56 188.98 450.05 191.75 450.38C193.54 456.71 192.26 465.12 192.35 471.75C192.45 479.95 195.13 497.54 188.66 503.42C180.36 510.95 167.62 503.56 159.12 500.18C133.61 490.04 109.18 474.97 88.53 456.72C51.47 423.95 24.25 381.88 10.2 334.61C6.52 322.22 4.12 309.42 2.21 296.63C1.33 290.71 2.27 283.1 0.08 277.58C0.08 267.2 0.08 256.82 0.08 246.44C2.18 241.28 1.48 233.85 2.15 228.27C3.4 217.89 5.6 207.47 8.18 197.36C17.19 162.1 34.29 128.79 57.19 100.42C127.07 13.86 243.73 -16.44 347.62 22.19C384.62 35.95 418.11 59.85 444.87 88.88C472.32 118.65 491.55 154.84 502.75 193.47C506.02 204.75 508.35 216.61 509.83 228.28C510.47 233.35 509.98 242.11 511.92 246.48Z" fill="#010101" fill-rule="evenodd" stroke="#010101" stroke-width="0.25" stroke-linejoin="round"/>
</svg>