<?xml version="1.0" encoding="UTF-8"?>
<svg xmlns="http://www.w3.org/2000/svg" viewBox="0 0 512 512" width="512" height="512">
<path d="M168.75 39.85C170.78 41.41 173.67 42.74 174.46 45.77C174.9 47.46 174.37 49.97 174.37 51.75C174.37 61.48 171.69 76.3 183.23 80.06C184.62 80.51 185.75 81.63 187.25 81.92C188.36 82.13 189.17 81.55 190.25 81.48C204.83 80.63 205.92 70.54 205.92 57.75C205.92 53.66 206.4 49.25 205.5 45.25C206.67 44.22 207.61 41.41 209.22 40.85C213.68 39.29 230.42 40.5 236.25 40.5C260.42 40.5 284.58 40.5 308.75 40.5C330.58 40.5 352.42 40.5 374.25 40.5C379.57 40.5 397.09 39.2 400.98 41.17C403.65 42.53 413.37 53.62 416.25 56.5C428.08 68.33 439.92 80.17 451.75 92C454.9 95.15 469.54 108.47 470.82 111.02C472.66 114.67 471.5 129.42 471.5 134.25C471.5 153.08 471.5 171.92 471.5 190.75C471.5 236.92 471.5 283.08 471.5 329.25C471.5 344.25 471.5 359.25 471.5 374.25C471.5 383.36 472.07 392.7 470.75 401.65C447.58 424.77 424.42 447.89 401.25 471.01C398.23 470.66 394.09 471.5 390.75 471.5C379.92 471.5 369.08 471.5 358.25 471.5C353.69 471.5 347.75 472.54 343.34 471.66C342.09 471.41 340.15 470.05 339.25 469.61C338.68 468.65 338.1 467.7 337.53 466.75C338.42 455.34 341.22 439.03 330.16 432.05C329.48 431.62 328.49 431.76 327.75 431.39C326.72 430.88 325.47 430.06 324.25 430.01C316.19 429.7 307.51 434.53 306.15 443.43C305.62 446.89 306.07 450.75 306.07 454.25C306.07 458.34 305.59 462.76 306.5 466.75C305.34 467.73 304.94 469.19 303.75 470.23C302.79 471.05 301.63 471.33 300.75 472.15C296.23 470.19 288.78 471.5 283.75 471.5C270.75 471.5 257.75 471.5 244.75 471.5C200.12 471.5 155.26 470.79 110.75 471.12C107.51 465.21 98.7 458.45 93.75 453.5C81.5 441.25 69.25 429 57 416.75C54.1 413.85 42.5 403.63 41.18 400.98C38.95 396.51 40.5 383.32 40.5 377.75C40.5 358.92 40.5 340.08 40.5 321.25C40.5 274.92 40.5 228.58 40.5 182.25C40.5 167.25 40.5 152.25 40.5 137.25C40.5 128.31 39.9 118.95 41.25 110.35C64.42 87.19 87.58 64.04 110.75 40.88C123.93 41 137.45 40.5 150.75 40.5C156.03 40.5 163.99 41.91 168.75 39.85ZM117.25 53.51C96 74.75 74.75 96 53.5 117.25C53.5 209.75 53.5 302.25 53.5 394.75C74.75 416 96 437.25 117.25 458.5C135.67 458.5 154.08 458.5 172.5 458.5C173.9 448.52 172.55 436.06 172.55 425.75C172.55 422.44 172.3 414.2 173.78 411.7C175.89 408.16 185.46 399.89 188.94 396.63C198.62 387.53 207.29 377.28 217.1 368.32C219.65 365.99 229.91 356.67 230.74 354.15C231.38 352.19 231.15 333.68 230.5 331.75C216.81 333.91 198.63 331.17 193.84 316.16C192.49 311.91 193.22 308.03 192.82 303.43C178.3 303.43 163.77 303.43 149.25 303.43C140.42 312.01 131.58 320.6 122.75 329.19C124.43 336.25 123.15 344.97 123.15 352.25C123.15 355.59 123.8 359.75 122.5 362.75C129.38 365.19 136.61 371.66 138.45 379.27C138.61 379.94 138.14 380.56 138.19 381.23C138.42 384.17 138.66 387.29 138.32 390.23C137.6 396.3 129.78 404.17 124.16 406.2C108.7 411.76 95.86 401.39 92.52 386.25C92.1 384.35 93.9 376.86 94.75 375.18C95.54 373.6 96.72 373.02 96.85 371.25C98.96 369.72 100.71 367.2 102.74 365.77C104.35 364.65 106.89 364.26 108.5 363.25C109.85 355.24 108.54 344.19 108.54 335.75C108.54 331.93 108.04 327.05 109.77 323.69C111.41 320.52 116.18 317.03 118.85 314.54C125.58 308.28 139.13 291.59 146.77 288.92C150.1 287.76 155.71 288.85 159.25 288.85C167.58 288.85 175.92 288.85 184.25 288.85C187.05 288.85 190.29 289.41 192.92 289.09C192.92 280.23 192.92 271.37 192.92 262.51C174.61 262.51 156.31 262.51 138 262.51C135.07 267.99 132.02 273.94 125.66 276.67C122.75 277.93 117.83 277.88 115.75 279.45C114.12 277.95 111.89 278.67 109.77 278.34C106.72 277.88 103.87 275.29 101.25 273.88C100.15 273.29 100.01 271.9 99.12 271.12C90.78 263.85 90.79 248.17 99.12 240.88C100.01 240.11 100.15 238.71 101.25 238.12C103.88 236.7 106.71 234.12 109.77 233.63C111.9 233.29 114.11 234.06 115.75 232.55C117.89 234.17 122.71 233.97 125.66 235.33C131.97 238.22 135.07 244.01 138 249.49C156.31 249.49 174.61 249.49 192.92 249.49C192.92 240.63 192.92 231.77 192.92 222.91C190.29 222.59 187.05 223.15 184.25 223.15C175.92 223.15 167.58 223.15 159.25 223.15C155.69 223.15 150.12 224.23 146.77 223.07C138.29 220.16 126.05 203.99 118.91 197.4C116.26 194.96 111.39 191.44 109.77 188.31C108.03 184.96 108.54 180.07 108.54 176.25C108.54 167.81 109.85 156.76 108.5 148.75C106.58 148 104.67 147.25 102.75 146.5C100.78 144.58 98.82 142.67 96.85 140.75C96.85 138.75 95.17 138.06 94.54 136.23C93.8 134.11 93.03 131.08 92.52 128.75C92.1 126.87 92.89 125.69 93.38 124.16C93.72 123.08 93.43 121.84 93.64 120.77C94.44 116.56 98.79 111.51 102.33 108.94C104.73 107.18 108.27 106.61 110.25 104.52C112.9 105.11 114.72 103.78 117.26 104.11C122.28 104.77 126.96 107.06 131.18 110.01C133.41 111.56 135.26 114.83 136.06 117.18C136.59 118.75 138.02 120.16 138.32 121.77C140.39 133.21 133.95 145.98 122.5 149.25C123.8 152.25 123.15 156.41 123.15 159.75C123.15 167.17 124.21 175.6 122.75 182.84C131.58 191.42 140.42 200 149.25 208.57C163.77 208.57 178.3 208.57 192.82 208.57C193.22 203.97 192.47 200.08 193.84 195.84C198.85 180.39 216.92 178.5 230.81 180.25C230.81 165.42 230.81 150.58 230.81 135.75C249.71 116.75 268.62 97.75 287.52 78.75C287.52 70.34 287.52 61.92 287.52 53.51C264.74 53.51 241.97 53.51 219.19 53.51C218.16 58.38 219.02 63.47 219.52 68.25C219.77 70.72 217.79 72 218.45 74.75C216.65 76.64 216.4 79.14 215.21 81.29C213.05 85.19 208.85 88.66 205.32 91.27C203.24 92.8 199.15 94.09 196.93 94.16C195.79 94.2 195.18 95.22 194.23 95.45C194.11 95.48 185.9 95.48 185.77 95.45C176.42 93.18 167.92 87.66 163.5 78.83C162.01 75.86 161.17 72.29 160.49 69.25C159.61 65.31 162.02 58.35 160.5 53.51C146.08 53.51 131.67 53.51 117.25 53.51ZM325 53.51C317.07 53.51 309.13 53.51 301.2 53.51C301.2 63.59 301.2 73.67 301.2 83.75C282.29 102.86 263.38 121.97 244.47 141.09C244.47 154.02 244.47 166.95 244.47 179.89C252.31 179.89 260.16 179.89 268 179.89C266.77 177.19 267.49 172.47 267.49 169.25C267.49 165.43 266.4 157.08 267.56 153.77C269.26 148.94 274.25 146.3 277.13 142.91C277.62 142.34 277.57 141.53 278.22 140.98C278.78 140.49 279.66 140.46 280.13 139.91C281.44 138.4 282.37 136.66 283.97 135.21C284.6 134.64 285.61 134.51 286.13 133.91C290.44 128.99 294.91 124.23 299.97 119.21C301.16 118.04 303.17 117.03 304.13 115.91C307.22 112.32 310.34 108.5 313.97 105.21C316.29 103.12 324.45 96.33 325.32 93.73C326.58 89.96 325.5 74.7 325.5 69.75C325.5 64.92 326.73 58 325 53.51ZM394.75 53.5C376.17 53.5 357.58 53.5 339 53.5C337.11 59.75 338.5 80.47 338.5 88.25C338.5 91.63 339.54 97.19 338.17 100.3C337.19 102.54 328.4 110.29 326.11 112.41C315.01 122.73 304 133.79 293.71 144.91C290.75 148.11 282.55 154.13 281.26 157.85C280.71 159.44 280.94 178.7 281.5 180.08C288.25 180.08 295 180.08 301.75 180.08C303.2 182.43 306.92 182.51 309.4 184.27C314.31 187.77 317.96 194.07 319.45 199.77C320.08 202.15 318.96 206.11 319.16 208.75C328.79 207.66 339.04 208.56 348.75 208.56C353.06 208.56 358.75 207.59 362.75 209.22C371.46 200.43 380.17 191.63 388.88 182.84C388.88 171.39 388.88 159.95 388.88 148.5C377.75 146.57 371.33 132.11 373.61 121.77C375.05 115.24 383.64 105.57 390.77 104.67C391.55 104.57 392.38 105.1 393.21 104.88C394.5 104.53 396.25 103.8 397.73 103.96C398.32 104.03 398.65 104.71 399.27 104.85C399.95 105 400.62 104.53 401.23 104.65C411.3 106.6 417.57 117.11 419.48 125.75C419.94 127.86 418.22 134.29 417.47 136.23C416.51 138.69 412.54 144.07 410.25 145.52C407.82 147.06 404.89 147.56 402.75 149.5C401.1 157.74 402.5 169.14 402.5 177.75C402.5 180.47 403.59 185.99 402.21 188.3C400.5 191.17 396.59 194.09 394.09 196.4C388.81 201.28 383.69 206.67 378.76 211.96C375.57 215.38 371.39 218.39 368.75 222.15C367.12 221.99 366.35 222.76 364.75 223.14C360.76 224.1 355.37 223.15 351.25 223.15C343.42 223.15 335.58 223.15 327.75 223.15C324.95 223.15 321.71 222.59 319.08 222.91C319.08 231.77 319.08 240.63 319.08 249.49C337.39 249.49 355.69 249.49 374 249.49C377.49 243.98 379.86 238.35 386.35 235.33C389.31 233.95 394.11 234.17 396.25 232.55C397.95 234.11 400.11 233.16 402.23 233.66C405.23 234.36 407.99 236.63 410.75 238.12C412.35 238.99 413.48 241.05 414.3 242.48C414.82 243.37 415.73 243.87 416.29 244.67C417.39 246.23 418.21 249.41 418.25 251.11C418.3 253.37 420.02 254.8 419.48 257.25C418.38 262.32 416.34 266.21 413.89 270.75C411.62 274.96 405.81 275.6 402.75 278.45C400.71 278.05 397.69 278.12 396.25 279.45C394.09 277.82 389.3 278.03 386.34 276.67C379.45 273.51 377.75 268.14 374 262.51C355.69 262.51 337.39 262.51 319.08 262.51C319.08 271.37 319.08 280.23 319.08 289.09C321.71 289.41 324.95 288.85 327.75 288.85C336.08 288.85 344.42 288.85 352.75 288.85C356.29 288.85 361.9 287.76 365.23 288.92C372.51 291.46 384.73 305.84 390.43 311.93C393.95 315.69 399.6 319.33 402.21 323.7C403.59 326.01 402.5 331.53 402.5 334.25C402.5 342.86 401.1 354.26 402.75 362.5C404.88 364.43 407.81 364.98 410.25 366.48C412.06 367.58 413.36 369.98 415.15 371.25C415.15 373.24 416.83 373.95 417.46 375.77C418.31 378.23 420.11 383.37 419.48 386.25C416.35 400.45 405.58 409.85 390.84 407.15C373.08 403.9 367.17 378.58 381.45 367.72C384.12 365.69 385.44 364.09 388.88 363.5C388.88 352.06 388.88 340.63 388.88 329.19C380.17 320.38 371.46 311.58 362.75 302.78C358.75 304.41 353.06 303.44 348.75 303.44C339.04 303.44 328.79 304.34 319.16 303.25C318.96 305.89 320.07 309.86 319.45 312.23C317.94 318.02 314.38 324.11 309.37 327.71C308.02 328.68 306.83 328.86 305.75 330.15C304.09 329.69 298.6 331.48 296.75 332.08C293.39 333.17 284.71 332.19 281.19 331.75C281.19 346.58 281.19 361.42 281.19 376.25C262.29 395.25 243.38 414.25 224.48 433.25C224.48 441.66 224.48 450.08 224.48 458.49C247.26 458.49 270.03 458.49 292.81 458.49C293.55 455 293.81 449.81 293.17 446.25C292.96 445.05 292.22 444.05 292.5 442.75C293.38 438.66 295.03 434.3 296.77 430.7C297.89 428.39 300.46 427.17 301.9 425.16C303.99 422.27 306.68 421.27 309.83 419.58C322.27 412.88 340.24 418.3 347.24 430.71C349.24 434.25 350.64 438.85 351.51 442.75C352.39 446.69 349.98 453.66 351.5 458.49C365.92 458.49 380.33 458.49 394.75 458.49C416 437.25 437.25 416 458.5 394.75C458.5 302.25 458.5 209.75 458.5 117.25C437.25 96 416 74.75 394.75 53.5ZM125.5 127.25C124.97 121.04 119.9 116.89 114.23 118.39C113.56 118.57 112.75 118.05 112.1 118.34C110.3 119.16 109.08 121.09 107.5 122.25C107.13 123.77 105.93 126.04 106.2 127.72C106.89 132.01 111.08 137.28 115.75 136.51C117.08 136.51 118.42 136.51 119.75 136.51C122.92 132.6 123.96 132.13 125.5 127.25ZM404.5 122.25C402.82 121.07 401.76 119.19 399.89 118.35C399.25 118.05 398.44 118.57 397.77 118.39C392.16 116.9 387.04 120.98 386.5 127.25C386.83 128.75 387.17 130.25 387.5 131.75C390.12 134.66 392.28 136.4 396.25 136.92C400.92 136.3 405.82 132.24 405.81 127.25C405.81 125.64 404.86 123.74 404.5 122.25ZM212.25 194.43C209.94 195.78 207.9 197.41 206.44 200.22C205.72 201.59 206.53 204.21 206.53 205.75C206.53 210.42 206.53 215.08 206.53 219.75C206.53 243.25 206.53 266.75 206.53 290.25C206.53 296.17 205.54 305.37 206.12 310.72C206.44 313.67 210.33 317.28 212.75 317.57C241.58 317.57 270.42 317.57 299.25 317.57C301.76 317.25 305.2 313.72 305.49 311.25C305.49 274.42 305.49 237.58 305.49 200.75C305.2 198.29 301.76 194.72 299.25 194.43C270.25 194.43 241.25 194.43 212.25 194.43ZM113.84 246.62C100.59 250.2 107.33 268.29 117.23 265.48C121.6 264.25 124.54 261.41 125.48 256.73C126.68 250.81 119.14 245.19 113.84 246.62ZM386.5 256.25C387.57 259.62 388.59 263 392.11 264.66C398.17 267.52 405.38 262.74 405.84 256.22C406.2 251.18 400.07 245.03 394.77 246.52C390.12 247.82 386.93 251.3 386.5 256.25ZM267.51 332.11C259.67 332.11 251.84 332.11 244 332.11C245.24 334.95 244.49 339.89 244.49 343.25C244.49 347.44 245.7 353.76 244.44 357.73C241.82 365.96 231.63 373.15 225.54 379.28C216.31 388.55 206.99 397.73 197.79 407.03C195.55 409.29 187.5 415.81 186.68 418.27C185.42 422.04 186.5 437.3 186.5 442.25C186.5 447.08 185.27 454 187 458.49C194.93 458.49 202.87 458.49 210.8 458.49C210.8 448.41 210.8 438.33 210.8 428.25C229.7 409.08 248.6 389.92 267.51 370.75C267.51 357.87 267.51 344.99 267.51 332.11ZM115.75 375.49C111.16 374.76 106.19 380.04 106.19 384.75C106.19 386.78 107.47 388.96 108.25 390.78C115.57 396.77 124.65 394.1 125.5 384.25C124.69 383.03 125.12 382.22 124.67 381.06C123.8 378.78 121.3 377.42 119.75 375.49C118.42 375.49 117.08 375.49 115.75 375.49ZM396.25 375.11C389.61 375.65 388.19 379.36 386.5 384.75C387.11 391.85 393.02 395.17 399.2 393.9C401.33 393.46 402.84 390.93 404.5 389.75C404.86 388.27 405.81 386.37 405.81 384.75C405.81 379.79 400.94 375.68 396.25 375.11Z" fill="#d6d6d6" fill-rule="evenodd" stroke="#d6d6d6" stroke-width="0.25" stroke-linejoin="round"/>
</svg>