<?xml version="1.0" encoding="UTF-8"?>
<svg xmlns="http://www.w3.org/2000/svg" viewBox="0 0 512 512" width="512" height="512">
<path d="M240.02 0.08C250.67 0.08 261.32 0.08 271.97 0.08C274.96 1.43 278.85 0.85 282.1 1.23C289.1 2.06 296.21 2.84 303.12 4.21C323.77 8.3 343.83 14.61 362.99 23.29C424.06 50.96 474.71 105.53 496.82 168.87C502.07 183.91 505.95 199.21 508.77 214.91C509.9 221.2 510.01 235.68 511.92 240.43C511.92 250.8 511.92 261.18 511.92 271.56C510.03 276.13 509.89 290.9 508.77 297.09C505.93 312.78 502.09 328.09 496.82 343.13C474.47 406.87 423.9 460.78 362.62 488.83C343.69 497.49 323.6 503.88 303.1 507.78C296.16 509.1 289.08 509.91 282.07 510.76C278.82 511.15 274.89 510.55 271.93 511.92C261.31 511.92 250.69 511.92 240.07 511.92C237.1 510.56 233.18 511.15 229.93 510.76C223.06 509.93 216.17 509.04 209.37 507.79C188.75 504.01 168.38 497.62 149.38 488.83C88.37 460.6 37.22 407.05 15.17 343.14C9.98 328.11 5.92 312.83 3.21 297.12C2.24 291.48 1.81 275.84 0.08 271.95C0.08 261.31 0.08 250.66 0.08 240.01C1.42 237.02 0.86 233.14 1.23 229.9C2.04 222.94 2.79 215.81 4.24 208.95C8.6 188.41 14.39 168.46 23.15 149.37C51.51 87.57 104.85 38.7 168.52 15.29C183.62 9.73 199.43 5.81 215.32 3.18C220.77 2.28 236.3 1.73 240.02 0.08ZM145.87 109.22C135.58 110.52 125.81 115.43 120.22 124.44C109.6 141.54 118.05 165.74 137.34 171.84C144.64 174.15 152.64 174.48 160.13 172.8C182.56 167.76 193.02 141.59 179.74 122.51C172.37 111.92 158.28 107.65 145.87 109.22ZM406.08 386.99C407.47 381.1 406.39 373.82 406.39 367.75C406.39 354.58 406.39 341.42 406.39 328.25C406.39 287.56 413.94 230.41 373.47 205.29C367.84 201.79 361.88 199.57 355.57 197.7C347.02 195.16 337.65 194.61 328.75 195.16C315.1 196 301.72 201.12 291.49 210.24C288.42 212.98 280.75 223.69 278.43 224.53C278.43 216.14 278.43 207.75 278.43 199.36C257.72 199.36 237 199.36 216.28 199.36C216.28 261.9 216.28 324.45 216.28 386.99C236.89 386.99 257.51 386.99 278.12 386.99C279.83 380.01 278.44 361.91 278.44 353.75C278.44 330.42 278.38 307.08 278.44 283.75C278.45 278.49 278.53 272.9 280.18 267.87C284.66 254.23 297.9 244.25 312.25 244.18C333.88 244.09 343.04 261.25 343.93 280.75C345.07 305.65 344.05 330.82 344.05 355.75C344.05 365.85 342.7 377.03 344.25 386.99C364.86 386.99 385.47 386.99 406.08 386.99ZM181.66 199.36C160.83 199.36 140.01 199.36 119.18 199.36C119.18 261.91 119.18 324.45 119.18 386.99C140.01 386.99 160.83 386.99 181.66 386.99C181.66 324.45 181.66 261.91 181.66 199.36Z" fill="#000000" fill-rule="evenodd" stroke="#000000" stroke-width="0.25" stroke-linejoin="round"/>
</svg>