<?xml version="1.0" encoding="UTF-8"?>
<svg xmlns="http://www.w3.org/2000/svg" viewBox="0 0 512 512" width="512" height="512">
<path d="M511.92 67.04C511.92 71.86 511.92 76.67 511.92 81.49C511.19 82.5 510.48 88.38 510.06 90.16C508.69 95.92 505.55 101.88 502.1 106.68C500.9 108.34 496.4 112.57 496.65 114.25C491.65 116.21 480.99 128.92 476.57 133.32C461.23 148.65 445.92 164 430.57 179.32C392.96 216.88 355.44 254.52 317.82 292.07C305.48 304.4 293.17 316.75 280.82 329.07C276.29 333.6 271.9 338.93 267.27 343.14C263.01 347.01 253.89 348.05 248.61 349.26C245.49 349.97 242.69 351.56 239.73 352.48C236.18 353.58 231.45 354.48 227.77 355.03C225.6 355.35 223.75 356.87 221.73 357.47C220.12 357.95 218.09 357.92 216.4 358.21C215.48 358.37 215.05 359.21 214.23 359.41C211.64 360.06 208.41 360.92 205.82 361.18C204.89 361.27 204.54 362.23 203.73 362.47C202.13 362.94 200.1 362.93 198.4 363.22C197.49 363.38 197.05 364.2 196.23 364.41C192.47 365.37 188.87 366.25 185.23 367.44C182.91 368.2 180.55 367.55 178.75 369.49C175.75 368.93 173.89 370.71 171.23 371.36C167.43 372.3 151.44 377.11 148.77 376.45C143.27 375.1 135.67 367.66 137.55 361.27C138.31 358.64 140.55 353.72 140.84 351.23C141.18 348.38 141.96 345.46 142.64 342.77C142.87 341.84 143.82 341.28 143.98 340.24C144.56 336.38 145.43 332.02 146.53 328.27C147.13 326.23 148.65 324.41 148.97 322.23C149.75 317.02 151.38 311.81 152.61 306.77C153.67 302.45 158.25 292.17 157.51 288.25C159.92 286.02 159.88 280.8 160.64 277.77C160.87 276.84 161.81 276.27 161.97 275.23C162.56 271.33 163.41 267.05 164.53 263.27C165.11 261.32 166.39 259.66 166.84 257.64C167.68 253.93 168.2 249.71 170.86 246.72C175.94 241.01 182.39 235.67 187.9 230.15C201.97 216.06 216.06 201.98 230.15 187.9C272.5 145.58 314.79 103.21 357.14 60.89C369.48 48.56 381.81 36.23 394.15 23.9C401.43 16.63 409.23 7.83 419.15 5.84C420.79 5.51 422.28 4.31 423.84 3.83C428.9 2.31 434.15 1.89 439.25 2.01C441.18 2.05 443.24 0.85 445.23 1.55C448.54 2.7 451.89 2.73 455.23 3.6C459.38 4.68 462.97 7.18 466.85 8.93C467.62 9.27 468.64 9.14 469.33 9.7C481.9 19.88 494.74 31.55 504.28 44.67C505.76 46.71 509.83 56.28 510.38 58.77C510.93 61.27 510.27 64.89 511.92 67.04ZM486.5 74.25C486.39 73.02 485.92 72.79 485.55 71.73C485.09 70.41 485.87 69.07 485.87 67.78C485.87 66.86 482.46 58.75 481.69 57.52C476.48 49.11 460.02 34.02 451.16 29.67C450.47 29.34 449.42 29.66 448.77 29.43C443.37 27.52 438.55 27.9 432.86 28.21C432.16 28.25 431.76 28.91 431.16 29.07C419.84 31.91 412.27 41.68 404 49.75C423.92 69.81 443.83 89.87 463.75 109.93C466.45 108.46 468.58 105.67 470.75 103.5C475.91 98.34 482.22 92.74 484.35 85.66C484.79 84.23 486.03 81.8 486 80.25C485.98 79.08 485.15 77.99 485.55 76.77C485.9 75.71 486.39 75.47 486.5 74.25ZM0.08 455.05C0.08 339.35 0.08 223.65 0.08 107.95C1.27 106.24 0.19 105.04 0.56 103.27C0.77 102.25 1.72 101.31 1.97 100.24C3.14 95.35 4.57 91.06 6.94 86.33C9.09 82.04 11.57 78.63 14.07 74.85C15.18 73.17 17.67 72.85 17.35 70.75C20.69 69.23 22.47 66.05 25.32 64.11C30.44 60.61 35.66 57.62 41.5 55.71C42.91 55.26 44.27 53.88 45.77 53.66C48.08 53.32 51.52 53.32 53.73 52.48C54.27 52.28 54.71 51.66 55.27 51.58C56.49 51.41 58.36 51.92 59.75 51.85C66.92 51.52 74.4 51.5 81.75 51.5C99.92 51.5 118.08 51.5 136.25 51.5C146.25 51.5 156.25 51.5 166.25 51.5C170.59 51.5 176.22 50.62 180.23 51.54C183.59 52.31 187.94 56.62 189.18 59.84C189.85 61.58 189.12 62.82 190.47 64.25C187.19 68.49 189.43 72.73 182.32 76.26C178.94 77.95 174.69 77 170.75 77C162.08 77 153.42 77 144.75 77C124.75 77 104.75 77 84.75 77C65.49 77 50.47 75.63 36.09 88.9C30.99 93.61 27.73 101.56 26.21 107.87C25.8 109.58 26.89 111.22 26.46 112.73C24.52 119.51 25.5 127.93 25.5 135.25C25.5 149.25 25.5 163.25 25.5 177.25C25.5 248.25 25.5 319.25 25.5 390.25C25.5 403.58 25.5 416.92 25.5 430.25C25.5 448.17 24.63 461.44 36.88 474.9C37.74 475.85 39.22 476.41 40.23 477.17C53.94 487.58 68.51 485.91 85.75 485.91C123.75 485.91 161.75 485.91 199.75 485.91C261.58 485.91 323.42 485.91 385.25 485.91C399.22 485.91 424.41 488.15 435.75 482.49C439.24 480.75 447.45 477.19 449.5 473.75C450.64 471.84 452.48 470.31 453.68 468.4C455.72 465.12 456.66 461.44 457.86 457.84C458.07 457.23 458.75 456.88 458.8 456.15C460.37 433.5 459.89 409.15 459.89 385.75C459.89 373.42 459.89 361.08 459.89 348.75C459.89 343.45 461.14 336.25 459.5 331.25C460.94 329.98 461.16 328.19 462.25 326.6C463.46 324.86 466.31 323.19 467.75 321.85C470.58 321.75 473.42 321.65 476.25 321.55C477.67 323.13 479.88 323.69 481.52 325.1C483.27 326.61 483.78 329.24 485.44 330.75C484.69 334.02 485.23 337.87 485.23 341.25C485.23 349.08 485.23 356.92 485.23 364.75C485.23 388.58 485.23 412.42 485.23 436.25C485.23 441.6 484.44 447.47 484.97 452.75C485.05 453.57 485.63 454.41 485.46 455.23C485.35 455.79 484.73 456.22 484.52 456.77C483.94 458.24 484.65 459.84 484.36 461.23C484.11 462.48 483.45 463.78 483.17 465.16C481.48 473.39 474.28 485.12 467.88 491.12C466.36 492.54 465.18 494.69 463.48 495.9C455.96 501.26 448.36 506.7 439.66 509.22C428.95 512.32 416.08 511.31 404.25 511.31C384.75 511.31 365.25 511.31 345.75 511.31C279.92 511.31 214.08 511.31 148.25 511.31C128.58 511.31 108.92 511.31 89.25 511.31C81.42 511.31 73.58 511.27 65.75 511.31C63.79 511.32 57.03 511.77 55.77 511.47C51.56 510.44 47.21 509.19 42.84 508.15C40.05 507.48 37.32 505.46 34.98 504.3C21.88 497.83 8.32 484.39 3.82 470.16C2.82 466.98 1.02 463.12 0.58 459.73C0.34 457.93 1.3 456.83 0.08 455.05ZM384.75 69C339.58 114.17 294.42 159.33 249.25 204.5C237.25 216.5 225.25 228.5 213.25 240.5C209.81 243.94 200.88 251.06 200 255.25C214.25 269.5 228.5 283.75 242.75 298C245.85 301.1 256.5 313.19 259.75 314C304.83 268.92 349.92 223.83 395 178.75C407.08 166.67 419.17 154.58 431.25 142.5C434.39 139.36 444.07 131.53 445 127.75C430.67 113.42 416.33 99.08 402 84.75C398.22 80.97 389.25 69.91 384.75 69ZM187.84 279.25C186.36 280.38 184.95 288.92 184.42 291.23C183.8 293.88 181.99 297.86 181.3 300.51C180.23 304.66 179.39 309.1 178.36 313.23C177.7 315.9 175.92 317.75 176.49 320.75C174.55 322.55 175.2 324.91 174.44 327.23C173.35 330.57 169.22 341.64 169.75 344.61C171.93 344.25 173.74 343.09 175.77 342.59C178.62 341.88 181.74 341.48 184.54 340.71C185.27 340.51 185.57 339.74 186.27 339.53C190.02 338.43 194.37 337.55 198.23 336.97C199.27 336.81 199.84 335.85 200.77 335.63C204.45 334.78 208.07 333.54 211.77 332.59C215.35 331.67 227.19 329.74 229.25 327.51C231.18 327.88 233.19 327.33 234.75 326.42C219.11 310.7 203.48 294.97 187.84 279.25Z" fill="#d9d9d9" fill-rule="evenodd" stroke="#d9d9d9" stroke-width="0.25" stroke-linejoin="round"/>
</svg>