<?xml version="1.0" encoding="UTF-8"?>
<svg xmlns="http://www.w3.org/2000/svg" viewBox="0 0 512 512" width="512" height="512">
<path d="M240.99 0.08C248.52 0.08 256.04 0.08 263.57 0.08C265.45 0.84 274.18 1.77 276.25 1.52C278.82 3.98 283.73 2.12 286.25 5C290.57 3.96 301.18 9.71 305.06 11.81C306.59 12.64 308.43 12.94 310.16 13.73C312.99 15.04 315.43 17.5 318.19 18.93C318.82 19.26 319.78 19.24 320.34 19.73C322.33 21.46 323.91 22.64 326.12 24.14C326.75 24.57 326.77 25.47 327.36 25.85C328.4 26.52 329.83 26.73 330.91 27.82C335.2 32.15 339.46 36.49 344.15 40.25C344.29 41.58 351.81 50.07 353.13 51.7C357.32 56.83 367.49 74.42 368.34 80.93C368.78 84.29 372.02 86.86 371 90.25C375.45 96.91 374.02 109.73 376.15 117.75C373.85 119.81 376.2 126.12 376.06 129.25C375.97 131.16 374.98 133 375.09 135.25C375.2 137.39 374.21 139.93 375.15 140.75C373.71 142.45 374.35 143.66 374.44 145.75C372.28 147.7 373.21 151.64 372.33 154.23C372.11 154.88 371.41 154.76 371.2 155.27C370.94 155.9 371.47 157.74 371.21 158.66C369.05 166.08 363.97 178.93 359.31 185.06C356.86 188.28 355.78 192.84 352.25 195C352.07 197.41 345.86 204.07 343.8 206.37C342.24 208.1 340.18 208.13 340.15 210.75C336.06 211.66 333.17 217.64 329.66 220.03C326.71 222.04 324.11 224.03 321.29 226.32C318.72 228.41 315.78 228.49 313.75 231.15C308.68 232.22 304.06 236.27 299.32 238.08C297.36 238.83 296.18 238.54 294.23 239.44C291.41 240.73 288.3 242.55 285.25 242C278.83 246.31 265.14 245 257.25 247.15C255.05 244.69 250.34 247.2 247.25 247.07C246.42 247.03 246.22 246.42 245.55 246.19C243.11 245.38 239.72 246.36 237.25 246.44C235.08 244.05 233.41 246.05 230.77 245.42C227.34 244.6 223.64 243.56 220.5 242.28C219.54 241.89 217.9 242.17 216.66 241.66C214.65 240.82 211.67 240.88 210.75 239C209.07 240 195.85 233.88 194 231.75C191.9 232.24 182.98 225.57 180.98 223.97C169.98 215.12 158.89 206.13 151.85 194.36C150.44 191.99 144.81 186.85 145.25 184C143.05 182.47 142.88 180.08 141.81 178.06C139.25 173.2 134.79 165.01 133.63 159.23C133 156.1 132.52 149.35 130.53 147.25C130.92 144.85 131.17 142.2 129.56 140.75C129.65 138.67 130.29 137.46 128.87 135.75C130.74 134.1 128.76 130.62 128.84 128.5C130.03 127.06 129.95 119.98 128.84 118.5C128.34 115.84 131.22 113.71 128.85 111.25C130.46 109.3 128.92 108.36 129.58 106.27C129.7 105.88 131.07 104.7 130.77 104.25C130.47 103.79 130.33 104.16 129.87 103.75C131.29 102.29 130.59 101.3 130.54 99.25C132.63 97.92 131.13 97.31 131.57 95.27C132.07 92.93 135.33 81.57 137 80.75C136.05 79.2 140.34 69.33 142 68.75C142.42 63.31 147.81 57.9 150.69 53.48C154.87 47.11 160.08 40.37 165.96 34.81C167.12 33.71 168.77 33.08 169.9 31.96C172.01 29.88 174.59 26.51 177.3 25.11C179.63 23.9 188.8 17.83 190.25 15.89C191.9 15.91 192.52 14.99 193.75 13.86C196.15 14.03 198.96 11.59 201.17 10.5C204.53 8.85 214.8 4.66 218.25 5C221.54 2.76 225.7 3.35 228.75 1.51C230.34 1.67 240.12 0.85 240.99 0.08ZM241.75 30C239.76 32.27 237.73 30.22 235.75 32.15C235.35 31.68 235.71 31.54 235.25 31.23C234.81 30.93 233.96 32.1 233.66 32.19C231.67 32.81 230.47 31.59 229.25 33.37C226.19 31.7 219.85 37.46 217.25 36C216.3 37.93 214.55 37.75 212.81 38.55C210.25 39.72 201.06 46.08 199 46.25C198.01 47.78 196.9 49.11 195 49.25C193.76 51.26 191.14 53.33 189.25 54.5C185.23 57 179 65.57 176.23 69.37C168.59 79.86 163.89 91.61 161.31 104.23C161.13 105.12 160.26 105.74 160.22 106.75C160.17 108.04 160.83 110.36 160.42 111.73C160.23 112.36 159.59 112.59 159.52 113.27C159.42 114.17 160.17 114.83 160.08 115.75C160 116.51 159.39 116.79 159.19 117.43C157.69 122.11 160.4 137.9 161.42 142.27C163.27 150.25 167.41 168.24 174.11 173.25C174.19 176.02 177.53 177.93 178.88 180.34C181.64 185.26 187.31 190.44 192.1 194.09C194.34 195.8 196.03 198.5 198.36 199.85C204.23 203.25 210.85 207.22 217.23 209.57C217.94 209.83 218.23 210.61 218.94 210.85C221.12 211.56 224.59 211.79 226.64 212.81C227.02 213 226.87 213.64 227.27 213.8C227.75 213.99 229.5 213.48 230.23 213.64C232.11 214.07 239.86 216.32 241.25 216.17C242.32 216.05 243.03 215.31 244.25 215.55C246.45 215.99 249.44 217.18 251.75 216.73C252.19 216.65 252.24 216.02 252.77 215.96C254.43 215.78 256.38 216.99 258.23 216.48C261.19 215.68 269.3 214.54 272.25 215C276.88 212.56 283.17 212.27 288.17 209.88C298.92 204.75 310.26 198.22 318.55 188.9C322.9 184.02 327.43 179.45 330.94 174.13C331.39 173.44 331.32 172.36 331.78 171.7C332.64 170.47 333.98 169.25 334.65 167.86C335.87 165.34 337.27 159.08 340 157.75C339.67 157.19 339.24 156.63 339.59 155.77C340.71 153.02 342.45 150.18 342.73 147.12C342.78 146.51 342.41 145.85 342.58 145.27C342.76 144.64 343.52 144.17 344 143.75C343.77 142.83 343.34 141.71 343.5 140.75C343.84 138.82 345.19 136.94 344.99 134.75C344.9 133.73 344.26 132.85 344.6 131.77C345.47 129.01 346.12 128.08 344.85 125.25C345.3 123.46 345.8 123.41 344.85 121.75C346.82 120.11 345.04 116.98 344.55 114.75C344.22 113.22 345.04 111.76 344.83 110.28C344.39 107.16 343.21 104.29 342.66 101.23C342.54 100.51 343.21 98.93 342.8 98.27C342.48 97.75 341.93 97.9 341.68 97.23C341.15 95.83 341.29 92.86 340.76 91.77C339.41 89.01 338.06 85.02 336.76 82.27C335.34 79.23 332.77 76.51 330.96 73.66C330.11 72.33 329.6 70.59 328.85 69.36C328.26 68.37 326.75 67.69 326.11 66.7C319.07 55.69 307.63 48.47 297.47 41.12C296.83 40.65 295.87 40.82 295.17 40.48C292.7 39.25 289.81 36.59 287.01 36.17C284.02 35.72 281.08 34.64 278.73 33.2C277.31 32.33 272.37 33.38 270.5 31.25C267.49 30.94 265.15 31.9 262.25 30C260.39 31.42 259.03 30.25 256.75 30.16C252.9 29.99 244.22 31.37 241.75 30ZM389.58 511.92C300.2 511.92 210.82 511.92 121.45 511.92C115.88 511.09 110.32 510.27 104.75 509.45C103.01 507.64 93.9 505.73 90.86 504.17C81.68 499.45 73.24 493.99 65 485.75C63.84 484.59 61.95 483.45 61.02 482.2C55.09 474.21 49.57 465.53 46.53 456.23C45.63 453.47 43.72 441.8 42.56 440.75C42.85 436.98 42.3 434.26 41.55 430.75C40.41 425.42 41.48 418.7 41.51 413.25C41.53 409.38 43.42 404.96 41.88 401.75C43.68 399.94 42.74 396 42.51 393.25C42.36 391.53 43.85 390.45 43.73 389.02C43.6 387.36 43.74 385.4 43.51 383.25C43.27 380.99 45.5 379.68 43.85 378.25C45.36 376.47 45.6 369.81 45.55 367.25C47.08 365.88 46.91 363.53 46.53 361.25C48.01 360.12 48 358.28 47.54 356.25C49.37 355.08 49.41 353.17 48.56 351.25C50.45 348.84 50.8 342.58 51.57 339.27C51.74 338.53 52.65 337.91 52.78 337.16C54.03 330.28 57.09 324.14 58.94 317.67C59.76 314.81 63.16 311.31 62.85 308.25C64.19 305.58 65.53 302.92 66.86 300.25C69.56 298.08 70.63 293.07 72.77 290.7C74.61 288.67 75.61 287.05 77.04 284.77C79.14 281.44 82.87 278.79 84.94 275.27C86.09 273.32 89.19 271.92 90.75 270.5C97.19 262.23 120.22 251.83 130.27 249.57C136.18 248.24 142.31 248.45 148.25 246.85C149.99 248.04 156.05 248.23 157.25 246.86C157.76 247.35 169.03 252.33 170.74 253.11C175.42 255.27 178.84 259.3 183.27 261.76C189.33 265.13 195.68 269.09 201.51 272.88C204.57 274.87 214.13 276.74 215.25 279C216.92 278.03 222.49 280.54 223.75 282C227 281.74 230.11 282.92 233 284.25C236.56 282.91 240.94 286.22 244.75 285.91C249.44 285.54 255.52 287.63 259.73 286.48C262.54 285.72 273.3 284.36 275.75 285C277.53 282.95 280.94 283.31 283.43 282.69C290.18 281 296.51 278.07 303.08 275.83C304.34 275.4 305.13 274.4 306.19 273.78C307.73 272.9 310.11 272.7 311.64 271.85C314.26 270.39 316.65 268.68 318.69 266.77C320 265.53 322.42 265.07 323.98 264.11C327 262.22 330.03 260.01 332.69 257.72C334.71 255.97 338.08 254.83 340.67 252.72C343.42 250.49 351.6 249.02 353.75 246.92C356.9 248.43 359.97 246.79 363.25 246.94C364.06 246.98 364.25 247.59 364.92 247.81C366.73 248.41 368.95 247.71 370.75 247.57C372.09 249.04 374.55 249 376.75 248.53C378.07 250.26 379.13 249.67 381.25 249.54C382.78 251.94 388.36 251.41 391.14 252.9C397.06 256.07 404.23 258.1 410.11 262.15C424.03 271.72 434.36 284.68 443.19 298.67C445.4 302.16 446.42 306.45 448.2 309.98C449.02 311.6 450.41 313.17 451.06 314.66C451.89 316.55 452.13 318.87 452.9 320.84C453.56 322.56 454.83 324.11 455.4 325.77C456.61 329.29 457.18 333.09 458.04 336.23C458.72 338.7 461.39 342.44 460 344.75C462.27 346.73 462.4 354.64 463.07 357.72C463.72 360.79 464.69 363.85 465.44 366.77C465.66 367.63 465.03 368.4 465.14 369.24C465.32 370.69 466.13 371.89 466.41 373.27C466.99 376.17 466.34 376.55 467.41 379.77C468.26 382.33 466.51 385.85 467.19 388.25C467.37 388.9 468.16 389.1 468.41 389.77C469.5 392.62 466.89 396.51 469.12 398.75C467.69 401.73 469.88 409.25 469.53 413.75C469.24 417.38 469.95 432.17 469.42 433.73C469.17 434.46 468.14 435 468.11 435.83C468.06 437.26 468.8 439.67 468.43 441.23C467.73 444.22 465.92 447.49 466.49 450.75C464.96 451.9 462.05 462.4 460.85 465.24C456.83 474.71 449.14 481.9 442.75 490.15C441.28 489.93 432.63 498.11 430.29 499.21C427.32 500.62 424.03 502.74 420.82 504.23C418.84 505.14 415.74 505.23 413.84 506.1C411.32 507.26 408.56 508.79 405.73 509.44C403.64 509.93 401.39 509.63 399.28 510.08C397.89 510.37 396.64 511.28 395.25 511.48C393.14 511.79 391.66 510.78 389.58 511.92ZM73.03 396.08C72.93 396.13 72.83 396.19 72.72 396.25C72.65 398.25 72.57 400.25 72.5 402.25C72.72 402.33 72.94 402.42 73.16 402.5C73.5 404.27 72.19 405.81 72.19 407.75C72.19 409.54 73.07 411.04 73.09 412.75C73.1 413.81 72.36 414.38 72.17 415.29C71.13 420.21 71.92 426.97 72.63 431.74C72.97 434.06 73.66 436.43 73.62 438.81C73.62 439.03 73.12 439.59 73.2 439.73C73.42 440.12 74.09 440.11 74.44 440.25C73.1 443.27 76.72 450.14 78.28 452.83C82.59 460.24 85.92 465.51 93.23 470.95C95.53 472.66 98.81 474.55 101.06 475.81C103.24 477.03 106.38 476.87 108.25 479C109.77 478.11 110.81 479.03 112.25 480C117.1 479.09 124.68 482.59 130.75 481.95C145.96 480.33 161.9 481.47 177.25 481.47C228.75 481.47 280.25 481.47 331.75 481.47C350.27 481.47 369.65 482.57 387.75 481.77C388.82 481.72 389.35 480.86 390.27 480.58C391.73 480.13 398.63 480.48 399.73 479.8C400.93 479.05 404.23 477.16 405.75 478C406.8 475.85 408.26 476.77 409.95 475.83C414.31 473.41 420.16 469.92 423.95 466.06C431.1 458.77 434.09 451.05 436.68 441.77C436.86 441.12 437.51 441.04 437.72 440.5C438.12 439.47 437.16 437.58 437.59 436.27C437.86 435.43 438.89 434.77 438.77 433.75C438.51 431.38 438.48 427.66 438.5 424.75C438.53 418.85 439.29 413.36 437.85 407.75C439.6 404.24 437.87 401.74 437.55 398.25C437.35 396.18 437.89 394.26 437.89 392.25C437.9 390.08 436.98 388.27 436.53 386.25C436.27 385.04 436.83 383.92 436.89 382.75C436.97 381.01 435.96 379.72 435.58 378.23C435.33 377.25 436.02 376.28 435.88 375.28C435.53 372.73 433.66 369.27 435 366.75C432.98 364.99 432.71 360.38 433 357.75C431.97 355.8 428.97 346.97 430 345.25C428.54 343.95 427.1 339.84 428 338.25C424.05 334.81 424.94 326.99 420.85 323.25C420.32 321.5 419.78 319.75 419.25 318C418.34 317.39 414.02 310.05 414.25 309C411.9 308.35 411.01 304.99 409.69 303.08C407.65 300.11 404.53 296.62 401.86 293.94C398.03 290.07 392.62 287.05 387.88 284.34C386.86 283.76 385.23 283.88 384.18 283.26C382.98 282.54 382.07 281.56 380.58 281.1C377.58 280.15 372.18 280.19 370.25 278C368.81 278.91 360.69 277.92 359.25 277C356.3 280.37 347.05 283.89 343.02 287.14C335.33 293.37 326 298.12 317.02 302.3C315.26 303.11 313.18 304.77 311.16 305.21C307.05 306.09 304.07 308.15 300.23 309.4C299.16 309.75 295.24 309.92 294.77 310.2C291.68 312.05 288.09 312.63 284.41 313.18C283.5 313.32 282.62 314.24 281.73 314.41C280.97 314.57 280.21 314.06 279.42 314.18C278.32 314.35 277.38 315.32 276.25 315.5C275.09 315.68 273.99 314.92 272.8 315.15C271.28 315.44 269.74 316.29 268.25 316.49C265.99 316.79 263.28 315.45 260.94 316.19C260.3 316.39 260.02 316.99 259.25 317.07C256.44 317.36 255.63 315.86 252.75 317.15C251.78 316.9 251.13 316.3 250.23 316.09C246.93 315.33 243.2 317.8 240.75 315C238.93 316.21 229.16 314.79 228.25 313C226.34 314.29 224.19 312.49 222.17 312.21C216.6 311.45 211.86 308.93 206.46 307.31C194.91 303.83 185.37 298.84 175.94 292.17C173.75 290.61 170.61 289.69 168.33 288.05C166.21 286.52 154.92 278.21 153 277.83C151.62 277.56 150.66 277.73 149.25 277C145.72 278.77 141.55 278.56 137.78 279.13C134.07 279.7 126.49 282.75 123.02 284.3C106.04 291.9 94.82 311.84 87.24 327.77C86.82 328.66 86.8 331.07 86.4 332.23C85.6 334.54 83.57 336.81 83.13 339.43C82.88 340.88 82.93 342.88 82.41 344.23C82.17 344.84 81.52 344.97 81.28 345.5C81.04 346.04 81.45 347.48 81.32 348.23C80.6 352.1 77.57 357.86 78.46 361.75C76.65 362.91 75.84 370.88 76.44 373.25C74.51 375 75.86 376.36 75.41 378.73C75.25 379.55 74.31 380.04 74.27 380.98C74.17 382.76 74.9 385.36 74.48 387.25C73.83 390.16 72.94 392.81 73.03 396.08Z" fill="#d3d3d3" fill-rule="evenodd" stroke="#d3d3d3" stroke-width="0.25" stroke-linejoin="round"/>
<path d="M128.84 118.5C129.95 119.98 130.03 127.06 128.84 128.5C128.84 125.17 128.84 121.83 128.84 118.5ZM73.03 396.08C73.07 398.22 73.12 400.36 73.16 402.5C72.94 402.42 72.72 402.33 72.5 402.25C72.57 400.25 72.65 398.25 72.72 396.25C72.83 396.19 72.93 396.13 73.03 396.08Z" fill="#b7b7b7" fill-rule="evenodd" stroke="#b7b7b7" stroke-width="0.25" stroke-linejoin="round"/>
</svg>