<?xml version="1.0" encoding="UTF-8"?>
<svg xmlns="http://www.w3.org/2000/svg" viewBox="0 0 512 512" width="512" height="512">
<path d="M401.75 27.56C403.2 29.79 404.1 28.22 406.23 28.71C408.09 29.13 407.91 30.11 410.25 29.55C412.43 31.55 414.76 30.87 417.14 31.94C420.89 33.62 425.56 35.16 429.3 36.92C430.62 37.54 432 39.22 433.36 39.89C434.28 40.33 435.56 40.2 436.34 40.74C441.49 44.27 446.68 48.38 451.75 52.18C453.55 53.53 455.09 56.28 456.85 57.94C457.6 58.65 459.34 59.59 459.82 60.25C465.79 68.46 472.04 75.98 475.99 85.34C477.8 89.64 479.25 94.13 481.1 97.86C481.98 99.64 480.59 100.29 482.44 101.75C481.9 104.09 482.88 103.92 483.29 105.77C483.77 107.89 482.22 108.8 484.44 110.25C482.96 113.55 484.87 115.08 485.46 117.75C485.96 119.99 485.19 125.09 485.23 127.75C485.46 142.58 485.24 157.42 485.24 172.25C485.24 225.42 485.24 278.58 485.24 331.75C485.24 348.75 485.25 365.75 485.24 382.75C485.24 385.37 485.91 392.23 485.46 394.25C484.87 396.93 482.96 398.44 484.44 401.75C482.21 403.2 483.78 404.1 483.29 406.23C482.87 408.09 481.89 407.91 482.44 410.25C479.9 413.45 479.72 418.32 478.17 422.16C473.15 434.6 464.84 447.06 454.87 456.06C453.74 457.08 452.72 458.98 451.59 459.82C443.5 465.84 436.18 471.95 426.66 475.99C423.39 477.38 420.15 478.68 417.14 480.08C414.8 481.17 412.52 480.36 410.25 482.45C407.91 481.9 408.09 482.87 406.23 483.29C403.93 483.82 403.23 482.6 401.25 484.47C399.86 484.35 397.69 483.62 396.34 484.09C395.22 484.49 395.15 485.39 393.75 485.48C387.81 485.88 381.3 485.24 375.25 485.24C352.58 485.24 329.92 485.24 307.25 485.24C266.42 485.24 225.58 485.24 184.75 485.24C162.82 485.24 140.58 484.4 118.75 485.49C116.97 485.58 116.7 484.24 115.23 484.02C113.66 483.77 111.85 484.45 110.25 484.44C108.8 482.21 107.9 483.78 105.77 483.29C103.92 482.87 104.08 481.92 101.75 482.43C100.26 480.55 92.52 479.06 89.84 478.16C84.97 476.53 73.86 470.21 70.46 467.11C67.74 464.62 63.91 463.37 62 460.25C60.04 460.05 52.57 451.96 51.66 450.09C51.09 448.94 49.16 447.69 48.3 446.71C45.55 443.56 42.87 439.48 40.75 436.34C40.2 435.54 40.3 434.3 39.88 433.36C37.46 427.95 34.28 422.36 31.94 417.14C30.9 414.83 31.42 412.62 29.56 410.25C30.09 407.91 29.13 408.08 28.71 406.23C28.22 404.1 29.79 403.2 27.56 401.75C29.06 398.45 27.13 396.92 26.53 394.25C26.1 392.32 26.76 385.76 26.76 383.25C26.78 366.08 26.76 348.92 26.76 331.75C26.76 278.58 26.76 225.42 26.76 172.25C26.76 157.25 26.58 142.24 26.76 127.25C26.79 124.74 26.07 119.86 26.53 117.75C27.13 115.08 29.06 113.56 27.56 110.25C29.79 108.8 28.22 107.9 28.71 105.77C29.13 103.91 30.11 104.1 29.55 101.75C32.11 98.53 32.33 93.6 33.82 89.84C37.69 80.14 43.85 69.87 50.91 62.66C51.58 61.96 51.64 60.97 52.18 60.24C52.42 59.93 60.18 52.22 60.24 52.18C68.84 46.93 75.76 40 85.34 36.01C89.89 34.12 93.93 32.83 97.86 30.89C99.64 30.02 100.28 31.42 101.75 29.57C104.08 30.1 103.92 29.13 105.77 28.71C107.9 28.23 108.8 29.78 110.25 27.56C113.56 29.06 115.08 27.13 117.75 26.53C120.01 26.03 125.08 26.81 127.75 26.77C142.57 26.53 157.42 26.76 172.25 26.76C225.42 26.76 278.58 26.76 331.75 26.76C348.75 26.76 365.75 26.73 382.75 26.76C385.4 26.77 392.21 26.08 394.25 26.53C396.92 27.13 398.45 29.06 401.75 27.56ZM395.75 60.42C395.41 59.92 395.3 59.32 394.66 59.09C393.23 58.6 383.16 59.41 380.75 59.41C365.75 59.41 350.75 59.41 335.75 59.41C280.42 59.41 225.08 59.41 169.75 59.41C156.42 59.41 143.08 59.4 129.75 59.41C126.71 59.41 117.62 58.35 116.25 60.42C114.18 60.16 112.56 59.51 111.25 61.34C108.85 60.07 107.79 62.49 105.25 62C104.15 64.15 101.22 63.06 99.75 65.43C94.72 64.88 84.19 73.89 80.75 78.15C79.38 79.31 78.38 78.56 78.15 80.75C73.18 84.78 68.68 90.52 66.3 96.02C65.54 97.77 63.49 104.49 62 105.25C62.49 107.79 60.07 108.85 61.34 111.25C59.49 112.57 60.14 114.17 60.42 116.25C59.91 116.59 59.32 116.7 59.09 117.34C58.6 118.75 59.41 128.85 59.41 131.25C59.41 146.25 59.41 161.25 59.41 176.25C59.41 231.58 59.41 286.92 59.41 342.25C59.41 355.58 59.38 368.92 59.41 382.25C59.41 385.45 57.99 394.14 60.42 395.75C60.14 397.82 59.51 399.44 61.34 400.75C60.07 403.16 62.49 404.21 62 406.75C64.15 407.84 63.65 411.74 65.27 413.85C67.2 416.38 68.59 419.94 70.15 422.64C72.47 426.68 76.59 429.32 78.75 433C81.09 433.31 83.67 437 85.38 438.74C89.54 442.97 95.94 444.72 100.09 447.63C101.87 448.88 104.23 448 105.25 450C107.79 449.51 108.84 451.93 111.25 450.65C112.55 452.5 114.17 451.86 116.25 451.58C117.62 453.65 126.71 452.59 129.75 452.59C143.08 452.6 156.42 452.59 169.75 452.59C225.08 452.59 280.42 452.59 335.75 452.59C350.75 452.59 365.75 452.59 380.75 452.59C383.19 452.59 393.2 453.4 394.66 452.91C395.3 452.69 395.42 452.08 395.75 451.58C397.83 451.86 399.45 452.5 400.75 450.64C403.14 451.94 404.22 449.51 406.75 450C407.65 448.23 412.25 447.36 413.98 446.69C420.08 444.35 426.97 439.27 431.25 433.85C431.83 433.65 432.42 433.45 433 433.25C433.28 432.58 433.57 431.92 433.85 431.25C438.7 427.28 443.3 421.59 445.69 415.98C446.43 414.26 448.5 407.51 450 406.75C449.51 404.22 451.93 403.15 450.65 400.75C452.5 399.44 451.88 397.83 451.58 395.75C454.01 394.14 452.59 385.45 452.59 382.25C452.62 368.92 452.59 355.58 452.59 342.25C452.59 286.92 452.59 231.58 452.59 176.25C452.59 161.25 452.59 146.25 452.59 131.25C452.59 127.94 453.95 117.82 451.58 116.25C451.88 114.18 452.5 112.56 450.65 111.25C451.93 108.85 449.51 107.78 450 105.25C448.25 104.36 447.35 99.74 446.69 98.02C444.68 92.71 438.88 84.25 433.85 80.75C433.61 78.4 431.83 78 430.23 76.82C429.71 76.43 429.43 75.35 428.95 74.92C425.21 71.54 418.34 66.98 413.98 65.31C412.26 64.64 407.64 63.75 406.75 62C404.21 62.49 403.16 60.07 400.75 61.34C399.44 59.51 397.82 60.16 395.75 60.42ZM284.75 164C288.46 163.72 290.65 165.88 293.09 168.66C293.93 169.6 295.68 170.63 296.12 171.7C299.51 179.94 293.85 194.3 291.13 202.16C284.92 220.08 279.34 238.23 273.13 256.16C270.9 262.6 268.06 268.94 266.15 275.5C263.79 283.59 260.51 291.41 258.15 299.5C256.71 304.44 255.44 309.56 253.28 314.25C252.6 315.72 252.66 317.62 252.13 319.16C250.93 322.62 249.18 325.96 248.15 329.5C245.37 339.01 244.16 345.23 233.34 348.11C231.88 348.5 231.41 349.4 229.75 349.46C228.92 348.97 228.08 348.49 227.25 348C223.13 348.32 220.67 345.46 217.91 342.34C211.17 334.74 216.52 325.52 218.84 317.49C219.57 314.99 220 312.32 220.87 309.84C225.73 295.91 230.01 281.77 234.87 267.84C236.77 262.4 239.23 257.05 240.84 251.49C242.45 245.96 243.97 240.29 245.87 234.84C250.66 221.11 256.11 207.34 259.79 193.27C260.49 190.59 262.08 188.14 262.85 185.49C265.18 177.47 267.09 167.28 276.34 163.96C277.13 163.68 277.91 164.11 278.66 163.89C282.63 162.7 279.87 161.43 284.75 164ZM176.25 188.75C178.25 188.75 180.25 188.75 182.25 188.75C183.49 189.65 184.3 189.43 185.68 189.99C188.07 190.95 190.29 193.54 192.1 195.34C193.91 197.14 193.41 199.94 195.46 201.25C194.55 203.22 194.93 205.65 195.49 207.75C194.61 209.21 193.78 210.43 193.14 211.86C192.94 212.31 193.45 212.77 193.19 213.3C191.85 216.08 187.53 219.35 185.19 221.39C178.83 226.92 169.86 235.86 164.4 242.2C161.58 245.47 154.51 253.7 151 255.25C151.3 257.9 161.53 267.08 164.06 269.24C170.92 275.07 176.35 282.67 183.19 288.61C186.35 291.36 191.06 295.11 193.2 298.7C194.28 300.53 194.38 302.42 195.5 304.25C195 306.4 194.53 308.74 195.46 310.75C193.65 312.3 193.85 314.9 192.09 316.66C190.28 318.46 188.07 321.05 185.68 322.01C184.29 322.57 183.49 322.35 182.25 323.25C180.25 323.25 178.25 323.25 176.25 323.25C174.74 322.65 172.32 322.16 170.7 321.2C166.66 318.79 160.83 311.86 157.61 308.18C152.94 302.85 147.36 297.41 141.97 292.74C136.57 288.07 132.2 282.08 126.82 277.39C122.88 273.95 112.53 265.02 113 259.75C110.8 257.82 110.8 254.18 113 252.25C112.53 246.98 122.88 238.05 126.82 234.61C132.2 229.92 136.56 223.92 141.96 219.26C147.35 214.6 152.94 209.15 157.61 203.82C160.84 200.14 166.66 193.22 170.7 190.8C172.32 189.83 174.74 189.35 176.25 188.75ZM329.75 188.75C331.75 188.75 333.75 188.75 335.75 188.75C337.25 189.35 339.68 189.84 341.3 190.81C345.31 193.2 351.22 200.15 354.39 203.82C359.05 209.21 365.1 213.56 369.75 218.96C374.38 224.34 379.84 229.97 385.19 234.61C389.16 238.06 399.46 246.89 399 252.25C401.19 254.18 401.19 257.82 399 259.75C399.43 265.14 389.18 273.92 385.19 277.39C379.84 282.03 374.38 287.66 369.75 293.04C365.1 298.44 359.05 302.79 354.39 308.18C351.79 311.19 344.44 319.47 341.3 321.2C339.67 322.09 337.32 322.62 335.75 323.25C333.75 323.25 331.75 323.25 329.75 323.25C328.52 322.37 327.71 322.52 326.32 321.97C323.83 320.99 321.76 318.38 319.77 316.66C317.87 315.01 318.68 312.12 316.54 310.75C317.47 308.73 317 306.41 316.5 304.25C317.62 302.43 317.71 300.52 318.8 298.7C320.94 295.12 325.66 291.37 328.82 288.61C335.62 282.68 341.14 275.16 347.96 269.26C350.48 267.08 360.72 257.9 361 255.25C357.51 253.61 351.38 246.36 348.61 243.18C343.02 236.75 334.25 228 327.82 222.39C324.97 219.9 320.74 216.53 318.81 213.3C317.9 211.78 317.23 208.99 316.9 207.75C316.9 205.75 316.9 203.75 316.9 201.75C319.32 197.5 319.34 195.94 323.34 191.91C325.12 190.12 327.89 190.09 329.75 188.75Z" fill="#d1d1d1" fill-rule="evenodd" stroke="#d1d1d1" stroke-width="0.25" stroke-linejoin="round"/>
</svg>