<?xml version="1.0" encoding="UTF-8"?>
<svg xmlns="http://www.w3.org/2000/svg" viewBox="0 0 512 512" width="512" height="512">
<path d="M446.25 72.82C447.25 72.82 448.25 72.82 449.25 72.82C449.92 73.21 450.58 73.61 451.25 74C451.92 73.86 452.58 73.73 453.25 73.59C454.16 75.6 462.5 78.6 464.68 80.11C466.44 81.33 473.12 88.65 473.88 90.26C474.61 91.79 474.67 93.12 476.11 94.25C475.75 95.83 476.99 98.11 478.4 98.75C478.27 99.42 478.13 100.08 478 100.75C478.39 101.42 478.79 102.08 479.18 102.75C479.18 103.75 479.18 104.75 479.18 105.75C479.39 107.03 479.88 106.62 480.43 107.77C481.56 110.08 480.55 119.72 480.55 122.75C480.55 135.25 480.55 147.75 480.55 160.25C480.55 191.75 480.55 223.25 480.55 254.75C480.55 286.75 480.55 318.75 480.55 350.75C480.55 363.58 480.55 376.42 480.55 389.25C480.55 392.28 481.56 401.92 480.43 404.23C479.88 405.38 479.39 404.97 479.19 406.25C479.19 407.25 479.19 408.25 479.19 409.25C478.79 409.92 478.4 410.58 478 411.25C478.13 411.92 478.27 412.58 478.4 413.25C475.81 414.43 475.57 419.43 473.8 421.81C472.37 423.75 466.82 430.41 464.67 431.89C462.72 433.24 459.28 434.13 457.75 436.14C456.27 435.8 453.85 437.08 453.25 438.41C452.58 438.27 451.92 438.14 451.25 438C450.58 438.4 449.92 438.79 449.25 439.19C448.25 439.19 447.25 439.19 446.25 439.19C444.97 439.39 445.38 439.88 444.23 440.43C442.3 441.37 428.36 440.55 425.25 440.55C409.42 440.55 393.58 440.55 377.75 440.55C336.58 440.55 295.42 440.55 254.25 440.55C213.75 440.55 173.25 440.55 132.75 440.55C117.25 440.55 101.75 440.55 86.25 440.55C83.21 440.55 69.66 441.35 67.77 440.43C66.62 439.88 67.03 439.39 65.75 439.18C64.75 439.18 63.75 439.18 62.75 439.18C61.71 438.18 61.78 437.99 60.75 439.09C59.72 437.47 58.19 437.2 56.25 437.48C55.6 436.33 55.52 435.83 54.25 436.12C51.83 434.66 49.41 433.21 46.99 431.75C47.21 431.52 47.62 431.6 47.77 431.27C47.93 430.88 46.74 430.98 46.67 430.94C45.91 430.48 45.23 429.49 44.5 428.93C43.15 427.9 41.07 425.87 40.2 424.69C38.27 422.08 36.12 414.83 33.6 413.25C33.73 412.58 33.87 411.92 34 411.25C33.61 410.58 33.21 409.92 32.82 409.25C32.82 408.25 32.82 407.25 32.82 406.25C32.61 404.97 32.12 405.38 31.57 404.23C30.59 402.22 31.45 387.51 31.45 384.25C31.45 367.42 31.45 350.58 31.45 333.75C31.45 289.58 31.45 245.42 31.45 201.25C31.45 180.25 31.45 159.25 31.45 138.25C31.45 130.92 31.45 123.58 31.45 116.25C31.45 114.08 30.62 109.71 31.57 107.77C32.04 106.8 32.65 106.85 33 105.75C32.72 103.37 32.7 102.66 34 100.75C33.87 100.08 33.73 99.42 33.6 98.75C35.98 97.67 37.03 92.4 38.19 90.2C40.02 86.73 47.23 79.96 50.66 77.89C52.79 76.59 57.62 76.1 58.75 73.59C61.36 74.11 62.73 72.65 65.75 73C66.85 72.64 66.8 72.04 67.77 71.57C70.26 70.35 75.96 71.45 78.75 71.45C87.75 71.45 96.75 71.45 105.75 71.45C132.42 71.45 159.08 71.45 185.75 71.45C242.58 71.45 299.42 71.45 356.25 71.45C377.25 71.45 398.25 71.45 419.25 71.45C425.25 71.45 431.25 71.45 437.25 71.45C439.05 71.45 442.62 70.78 444.23 71.57C445.38 72.12 444.98 72.61 446.25 72.82ZM445.75 89.47C445.54 89 445.61 88.42 445.14 88.11C443.95 87.31 440.55 88.35 439.25 88.52C435.07 89.08 430.47 88.55 426.25 88.55C405.92 88.55 385.58 88.55 365.25 88.55C289.25 88.55 213.25 88.55 137.25 88.55C119.25 88.55 101.25 88.55 83.25 88.55C79.68 88.55 75.77 89 72.25 88.44C71.1 88.26 67.91 87.41 66.86 88.11C66.39 88.42 66.46 89 66.25 89.46C59.27 89.32 54.76 95.15 50.98 100.64C49.9 102.21 48.45 104.29 49.38 106.25C48.95 106.46 48.39 106.4 48.11 106.86C47.51 107.82 48.55 119.12 48.55 121.25C48.55 131.92 48.55 142.58 48.55 153.25C48.55 157.4 49.47 164.18 48.25 167.46C186.83 167.46 325.42 167.46 464 167.46C462.29 163.68 463.45 153.88 463.45 149.25C463.45 137.78 461.85 122 464.06 111.17C464.6 108.53 462.9 106.73 463.25 104.5C462.02 103.22 462.41 102.85 461.89 101.36C461.54 100.38 460.31 100.1 459.78 99.29C456.41 94.11 452.32 89.41 445.75 89.47ZM348.25 113C352.73 113.42 359.45 119.13 359 124.25C362.15 127.55 360.01 129.12 359 132.25C358.45 137.11 353.13 142.45 348.25 143C345.6 143.86 342.95 146.12 340.25 143C335.59 143.48 328.52 136.42 329 131.75C326.86 129.52 326.86 126.48 329 124.25C328.46 119.25 335.41 113.48 339.75 113C340.86 112.64 340.79 112.03 341.77 111.55C344.3 110.3 346.45 112.42 348.25 113ZM412.25 113C416.73 113.42 423.45 119.13 423 124.25C426.15 127.55 424.01 129.12 423 132.25C422.45 137.11 417.13 142.45 412.25 143C409.6 143.86 406.95 146.12 404.25 143C399.59 143.48 392.52 136.42 393 131.75C390.86 129.52 390.86 126.48 393 124.25C392.46 119.25 399.41 113.48 403.75 113C404.86 112.64 404.79 112.03 405.77 111.55C408.3 110.3 410.45 112.42 412.25 113ZM48.25 184.54C49.56 188.07 48.55 195.33 48.55 199.75C48.55 211.25 48.55 222.75 48.55 234.25C48.55 273.58 48.55 312.92 48.55 352.25C48.55 365.75 48.55 379.25 48.55 392.75C48.55 395.81 46.72 404.47 49.38 405.75C48.4 407.88 50.1 409.59 50.98 411.36C52.28 413.97 54.59 417.15 57.05 419.06C57.65 419.53 58.72 419.41 59.3 419.79C60.05 420.29 60.47 421.55 61.36 421.89C62.83 422.43 63.22 422.02 64.5 423.25C66.33 422.96 66.17 423.83 67.75 423.99C72.64 424.48 78.23 423.45 83.25 423.45C97.42 423.45 111.58 423.45 125.75 423.45C169.25 423.45 212.75 423.45 256.25 423.45C299.75 423.45 343.25 423.45 386.75 423.45C400.75 423.45 414.75 423.45 428.75 423.45C433.77 423.45 439.36 424.48 444.25 423.99C445.83 423.83 445.67 422.96 447.5 423.25C449.17 421.65 450.81 421.9 452.64 420.88C454.01 420.13 455.97 418.13 457.16 416.91C458.2 415.84 461.58 411.47 461.89 410.64C462.43 409.17 462.02 408.78 463.25 407.5C462.9 405.27 464.6 403.47 464.06 400.83C461.81 389.8 463.45 369.82 463.45 357.75C463.45 321.92 463.45 286.08 463.45 250.25C463.45 234.92 463.45 219.58 463.45 204.25C463.45 199.15 462.3 188.44 463.75 184.54C325.25 184.54 186.75 184.54 48.25 184.54Z" fill="#d6d6d6" fill-rule="evenodd" stroke="#d6d6d6" stroke-width="0.25" stroke-linejoin="round"/>
</svg>